<svg width="430" height="666" viewBox="0 0 430 666" fill="none" xmlns="http://www.w3.org/2000/svg">
<g clip-path="url(#clip0_364_10290)">
<path d="M-2670.7 373.642C-2679.1 279.151 -2608.14 196.24 -2513.49 189.931L315 1.41895C366.378 -2.00531 416.518 18.164 451.213 56.2126L751.868 385.922C850.879 494.502 773.846 669 626.901 669H-2489.7C-2577.31 669 -2650.41 602.101 -2658.16 514.839L-2670.7 373.642Z" fill="#B3EDDD"/>
<path d="M904.84 600.672C898.289 543.38 853.937 497.707 796.862 489.477L-2030.67 81.7917C-2086.16 73.791 -2142.01 93.8084 -2179.78 135.237L-2474.91 458.931C-2573.91 567.513 -2496.87 742 -2349.93 742H778.751C854.553 742 913.452 675.983 904.84 600.672Z" fill="#8CE4CB"/>
<path d="M-2506.56 410.995C-2513.42 324.166 -2448.4 248.299 -2361.54 241.794L264.463 45.1418C315.838 41.2945 365.84 62.8576 398.305 102.861L708.968 485.662C792.379 588.441 719.236 742 586.869 742H-2335.08C-2417.12 742 -2485.38 678.928 -2491.84 597.143L-2506.56 410.995Z" fill="#66DCBA"/>
</g>
<defs>
<clipPath id="clip0_364_10290">
<rect width="430" height="666" fill="white"/>
</clipPath>
</defs>
</svg>
