<svg width="1440" height="407" viewBox="0 0 1440 407" fill="none" xmlns="http://www.w3.org/2000/svg">
<g clip-path="url(#clip0_312_7635)">
<path d="M-231.905 197.82C-235.812 150.136 -200.07 108.423 -152.351 104.975L1285.06 1.13643C1312.56 -0.850294 1339.35 10.4639 1357.1 31.5635L1522.02 227.595C1569.1 283.561 1529.31 369.026 1456.18 369.026H-138.597C-183.392 369.026 -220.693 334.657 -224.351 290.012L-231.905 197.82Z" fill="#B3EDDD"/>
<path d="M1587.67 331.284C1584.33 299.571 1560.07 274.074 1528.57 269.15L97.0681 45.4599C67.3281 40.8127 37.3218 52.0451 17.9437 75.079L-144.016 267.595C-191.099 323.561 -151.313 409.026 -78.1755 409.026H1517.7C1559.48 409.026 1592.06 372.833 1587.67 331.284Z" fill="#8CE4CB"/>
<path d="M-148.218 219.286C-151.419 175.467 -118.683 137.267 -74.892 133.719L1259.77 25.5643C1287.15 23.3457 1313.75 35.3287 1330.23 57.3038L1498 281.001C1537.56 333.74 1499.93 409 1434 409H-59.9903C-101.912 409 -136.723 376.638 -139.778 334.828L-148.218 219.286Z" fill="#66DCBA"/>
</g>
<defs>
<clipPath id="clip0_312_7635">
<rect width="1440" height="407" fill="white"/>
</clipPath>
</defs>
</svg>
