<svg width="385" height="100" viewBox="0 0 385 100" fill="none" xmlns="http://www.w3.org/2000/svg">
<path d="M3.92183 19.696L14.9378 24.124V27.58L0.537832 20.92V18.328L14.9378 11.704V15.16L3.92183 19.696Z" fill="#33A987"/>
<path d="M43.1478 30.39C39.6278 30.37 36.8478 29.8 34.8078 28.68C32.7878 27.54 31.6878 25.96 31.5078 23.94C31.4878 23.78 31.4778 23.54 31.4778 23.22C31.4778 22.34 31.5978 21.39 31.8378 20.37C32.0778 19.35 32.3778 18.44 32.7378 17.64L35.9178 19.14C35.7178 19.78 35.5378 20.46 35.3778 21.18C35.2178 21.88 35.1478 22.46 35.1678 22.92C35.2478 23.32 35.6078 23.71 36.2478 24.09C36.9078 24.45 37.8178 24.75 38.9778 24.99C40.1578 25.21 41.5478 25.32 43.1478 25.32C44.9878 25.32 46.5378 25.24 47.7978 25.08C49.0778 24.9 50.0378 24.7 50.6778 24.48C51.3178 24.26 51.6478 24.1 51.6678 24C51.5078 23.02 51.2578 22.06 50.9178 21.12C50.5778 20.18 50.2078 19.2 49.8078 18.18L53.2878 16.26C53.8478 17.48 54.2978 18.8 54.6378 20.22C54.9978 21.62 55.1478 22.88 55.0878 24C54.9878 26.12 53.8778 27.71 51.7578 28.77C49.6578 29.81 46.8878 30.35 43.4478 30.39H43.1778H43.1478ZM41.8878 33.75C42.3078 33.31 42.7378 32.88 43.1778 32.46L44.1678 33.45C45.4878 34.77 46.1478 35.43 46.1478 35.43L43.1778 38.43C43.1778 38.43 42.5178 37.77 41.1978 36.45L40.1778 35.43L41.8878 33.75ZM76.2735 30C73.6135 30 71.8235 28.81 70.9035 26.43C69.6435 27.81 67.9735 28.89 65.8935 29.67C63.8335 30.43 61.6035 30.83 59.2035 30.87L58.0035 26.25C58.5435 26.21 59.4335 26.13 60.6735 26.01C60.9135 25.37 61.0335 24.65 61.0335 23.85C61.0335 22.49 60.7335 20.86 60.1335 18.96C59.5335 17.06 58.6735 14.88 57.5535 12.42L61.0935 9.99C62.2535 12.31 63.1235 14.5 63.7035 16.56C64.2835 18.6 64.5735 20.44 64.5735 22.08C64.5735 23.36 64.3935 24.48 64.0335 25.44C65.6335 25.04 66.8735 24.47 67.7535 23.73C68.6535 22.99 69.1035 21.99 69.1035 20.73C69.0835 18.71 68.9935 16.8 68.8335 15C68.6735 13.18 68.4235 10.94 68.0835 8.28L72.2835 7.35C72.8835 12.01 73.1735 16.44 73.1535 20.64V20.85C73.2135 21.97 73.3435 22.82 73.5435 23.4C73.7435 23.98 74.0535 24.39 74.4735 24.63C74.9135 24.85 75.5235 24.96 76.3035 24.96H76.6635V30H76.2735ZM76.3583 24.96H77.4683C79.0683 24.96 80.4083 24.84 81.4883 24.6C82.5883 24.36 83.3383 24.05 83.7383 23.67C82.8983 21.51 80.8083 19.06 77.4683 16.32L77.8883 12L89.0783 7.32L90.4583 11.34L82.0283 14.91C83.1483 15.93 84.3183 17.26 85.5383 18.9C86.7583 20.52 87.3683 22.17 87.3683 23.85C87.3683 24.25 87.3283 24.61 87.2483 24.93C86.8883 26.63 85.8283 27.9 84.0683 28.74C82.3083 29.58 80.1083 30 77.4683 30H76.3583V24.96ZM111.426 30C110.526 30 109.736 29.84 109.056 29.52C108.376 29.2 107.766 28.71 107.226 28.05C105.806 29.47 104.016 30.18 101.856 30.18C99.3957 30.18 97.0357 29.35 94.7757 27.69L96.5457 24.15C98.1057 24.97 99.7057 25.38 101.346 25.38C102.886 25.38 104.176 25.06 105.216 24.42L101.166 15.18L104.556 13.35L108.666 23.07C108.986 23.81 109.336 24.31 109.716 24.57C110.096 24.83 110.666 24.96 111.426 24.96H111.786L112.056 27.48L111.786 30H111.426ZM111.485 24.96H112.595C114.195 24.96 115.535 24.84 116.615 24.6C117.715 24.36 118.465 24.05 118.865 23.67C118.025 21.51 115.935 19.06 112.595 16.32L113.015 12L124.205 7.32L125.585 11.34L117.155 14.91C118.275 15.93 119.445 17.26 120.665 18.9C121.885 20.52 122.495 22.17 122.495 23.85C122.495 24.25 122.455 24.61 122.375 24.93C122.015 26.63 120.955 27.9 119.195 28.74C117.435 29.58 115.235 30 112.595 30H111.485V24.96Z" fill="url(#paint0_linear_312_7316)"/>
<path d="M141.554 33.196H138.458L149.15 5.404H152.21L141.554 33.196ZM166.362 19.588L154.734 15.016V11.668L169.746 18.328V20.884L154.734 27.544V24.196L166.362 19.588Z" fill="#33A987"/>
<defs>
<linearGradient id="paint0_linear_312_7316" x1="14.6588" y1="-2.54167" x2="192.961" y2="59.959" gradientUnits="userSpaceOnUse">
<stop stop-color="#8CE4CB"/>
<stop offset="1" stop-color="#33A987"/>
</linearGradient>
</defs>
</svg>
