<svg width="171" height="145" viewBox="0 0 171 145" fill="none" xmlns="http://www.w3.org/2000/svg">
<g clip-path="url(#clip0_487_3792)">
<path d="M164.381 118.525H6.61894C3.24502 118.525 0.5 115.78 0.5 112.406V93.418H170.5V112.406C170.5 115.78 167.755 118.525 164.381 118.525Z" fill="#E6E6E6"/>
<path d="M105.918 115.349H65.6868V144.085H105.918V115.349Z" fill="#E6E6E6"/>
<path d="M108.338 140.456H63.2668V144.085H108.338V140.456Z" fill="#E6E6E6"/>
<path d="M170.349 101.434H0.5V4.90372C0.5 2.58836 2.38377 0.70459 4.69913 0.70459H166.15C168.465 0.70459 170.349 2.58836 170.349 4.90372V101.434Z" fill="#3F3D56"/>
<path d="M166.265 5.09082H4.43237V96.1406H166.265V5.09082Z" fill="white"/>
<path d="M35.7734 59.3586C37.012 58.3351 38.5441 58.1446 39.1953 58.933C39.8465 59.7214 39.3702 61.1899 38.131 62.2135C37.6416 62.6292 37.0598 62.9217 36.4342 63.0664L31.1313 67.3366L29.1804 64.8054L34.6153 60.8645C34.8755 60.2772 35.2726 59.7608 35.7734 59.3586Z" fill="#FFB6B6"/>
<path d="M5.12303 68.9933C5.12034 68.8044 5.12211 67.1571 6.34164 66.1159C7.74255 64.9199 9.7193 65.404 10.4126 65.5738C12.0142 65.966 12.1456 66.6531 13.6497 67.359C16.4636 68.6798 12.9378 68.0037 14.6122 67.5802C15.1918 67.4336 23.5299 66.8554 25.6054 65.5779C29.642 63.0935 32.3924 61.5869 32.3924 61.5869L34.1904 65.1829C34.1904 65.1829 31.5905 68.798 27.9314 71.4762C24.1779 74.2233 22.3012 75.5969 19.4491 76.1276C19.2035 76.1733 13.1629 77.2047 8.29772 73.5699C7.18799 72.7408 5.15472 71.2217 5.12303 68.9933Z" fill="#40D3A9"/>
<path d="M10.7005 59.8478C14.1597 59.8478 16.964 57.0435 16.964 53.5843C16.964 50.1251 14.1597 47.3208 10.7005 47.3208C7.24127 47.3208 4.43701 50.1251 4.43701 53.5843C4.43701 57.0435 7.24127 59.8478 10.7005 59.8478Z" fill="#FFB6B6"/>
<path d="M59.7537 95.6649L53.3032 89.062L49.9734 92.5354L54.7793 98.8664L59.5462 99.4116L59.7537 95.6649Z" fill="#FFB6B6"/>
<path d="M22.9211 83.2831C23.2983 83.3144 24.4973 83.5546 25.6433 82.9241C26.4254 82.4938 26.8265 81.854 26.962 81.6506C28.6427 79.1263 35.0936 75.19 40.8832 74.9478C42.1943 74.893 43.0573 75.0449 43.8417 75.4538C44.9539 76.0335 45.398 76.864 46.8094 78.8095C47.5814 79.8737 48.4357 80.8763 49.217 81.9337C53.7915 88.1241 55.5256 88.6101 55.3484 90.5947C55.1517 92.7967 52.7769 94.8858 51.1986 94.6446C50.5522 94.5458 50.3018 94.0964 49.4382 93.1864C46.906 90.5185 45.8584 91.0114 44.0556 88.968C41.9508 86.5822 42.2263 84.604 41.1282 84.5276C40.1098 84.4567 39.677 86.1443 37.5029 88.3861C36.5081 89.4119 35.7997 89.8825 33.6415 91.3798C25.2369 97.2104 25.1027 97.6202 23.4066 98.0852C22.6645 98.2886 17.3975 99.7327 15.5212 97.4347C12.585 93.8386 19.5214 83.0006 22.9211 83.2831Z" fill="#2F2E41"/>
<path d="M57.7817 97.1569C58.2561 96.9439 58.8108 96.6948 58.9893 96.122C59.1101 95.7344 59.0405 95.2565 58.7909 94.9263C58.5029 94.5452 58.0766 94.495 58.0939 94.4276C58.1201 94.325 59.1282 94.3651 60.2347 94.7563C60.4436 94.8301 61.3896 95.1757 62.5929 96.1152C63.5571 96.8679 63.4273 97.0188 64.0319 97.4528C65.8878 98.785 67.6284 97.7351 68.6326 98.9844C69.0202 99.4666 69.1855 100.151 69.0224 100.705C68.6948 101.816 67.102 102.199 66.2315 102.396C64.1349 102.872 62.548 102.484 60.891 102.205C55.2558 101.255 52.0896 102.12 51.6659 100.814C51.5857 100.567 51.716 100.588 52.1505 98.7751C52.5793 96.9855 52.5652 96.494 52.9305 96.3507C53.4802 96.135 53.8494 97.1162 55.2343 97.4521C56.4616 97.7497 57.4743 97.2949 57.7817 97.1569Z" fill="#2F2E41"/>
<path d="M48.2859 117.266L46.6561 108.18L41.9504 109.184L42.372 117.122L46.0103 120.25L48.2859 117.266Z" fill="#FFB6B6"/>
<path d="M24.7615 86.3374C25.0561 86.5752 25.9133 87.4472 27.2156 87.569C28.1044 87.6522 28.7955 87.348 29.0219 87.2557C31.8301 86.1108 39.3783 86.4762 44.3049 89.5268C45.4205 90.2176 46.0493 90.8279 46.4688 91.6067C47.0635 92.711 46.9646 93.6476 47.04 96.0499C47.0812 97.364 47.2251 98.6733 47.2779 99.987C47.5868 107.678 48.7489 109.054 47.4878 110.597C46.0886 112.308 42.9505 112.703 41.7798 111.617C41.3004 111.173 41.3457 110.66 41.142 109.422C40.5449 105.793 39.4013 105.612 39.057 102.909C38.6551 99.7531 39.9939 98.271 39.1281 97.5911C38.3253 96.9607 37.0196 98.114 33.9617 98.7482C32.5625 99.0384 31.7121 99.0299 29.0855 99.0569C18.857 99.162 18.5159 99.4257 16.8513 98.8581C16.123 98.6097 10.9539 96.8469 10.6918 93.8919C10.2816 89.2675 22.1071 84.1947 24.7615 86.3374Z" fill="#2F2E41"/>
<path d="M45.8162 117.393C46.3283 117.483 46.9272 117.588 47.3965 117.215C47.7141 116.962 47.9249 116.527 47.9038 116.114C47.8795 115.637 47.5549 115.356 47.607 115.31C47.6864 115.24 48.498 115.839 49.194 116.784C49.3253 116.962 49.914 117.78 50.3822 119.233C50.7573 120.397 50.5652 120.449 50.8217 121.148C51.6093 123.292 53.6392 123.401 53.7685 124.998C53.8184 125.615 53.5708 126.274 53.125 126.641C52.2298 127.377 50.697 126.799 49.8657 126.473C47.8638 125.69 46.7688 124.477 45.5545 123.316C41.4249 119.366 38.3194 118.303 38.7018 116.985C38.7742 116.736 38.8702 116.826 40.2479 115.57C41.6077 114.33 41.872 113.915 42.2547 114.002C42.8307 114.132 42.5852 115.151 43.5426 116.207C44.391 117.142 45.4843 117.335 45.8162 117.393Z" fill="#2F2E41"/>
<path d="M11.5546 54.7819C11.7984 53.9097 11.4922 53.5918 11.8043 53.2003C11.8043 53.2003 11.93 53.0427 13.053 52.6176C12.7217 50.6951 12.9698 50.37 12.9698 50.37C13.2557 49.9953 13.8285 49.9047 14.2184 49.9537C15.0432 50.0574 15.1891 50.8029 15.7168 50.7862C16.4458 50.7631 17.3201 49.3039 17.0488 48.0391C16.8274 47.0074 15.8729 46.2413 15.6336 46.3742C15.3964 46.506 14.5423 45.9248 14.2184 46.0412C13.9972 46.1208 12.9561 46.015 12.72 46.1245C12.4622 46.2441 11.7239 46.9888 11.6533 46.895C11.1628 46.2429 11.1732 46.0153 10.8886 45.8748C10.3844 45.6257 9.83611 46.086 8.89078 46.5407C6.94572 47.4763 6.37617 46.9182 5.47774 47.7061C5.0239 48.1042 4.78053 48.8648 4.31232 50.37C3.65752 52.4749 3.33013 53.5273 3.64636 54.5322C3.96886 55.557 4.44378 55.334 5.14477 56.7798C5.92507 58.3893 5.65613 59.3248 6.39344 59.6934C6.96328 59.9782 7.87906 59.7969 8.22482 59.2771C8.81681 58.3872 7.28671 57.1834 7.8086 55.7809C8.12895 54.92 9.11719 54.2672 9.72323 54.4489C10.4085 54.6545 10.4589 55.8831 10.8887 55.8641C11.2566 55.8478 11.5121 54.9339 11.5546 54.7819Z" fill="#2F2E41"/>
<path d="M6.80966 60.7755C8.09139 59.3383 13.3122 60.8258 13.8022 63.1063C14.0038 64.0443 13.2597 64.4404 13.4692 65.5204C13.7757 67.1001 15.511 66.9924 16.799 68.6005C18.6276 70.8834 16.7438 73.1151 18.7969 76.9249C19.2356 77.739 19.6054 78.4252 20.3785 79.0893C22.1527 80.6132 23.8039 80.0905 24.7073 81.5034C25.3828 82.5599 25.1053 83.8622 25.0402 84.1672C24.7736 85.4181 24.051 85.7228 23.5418 86.7478C22.6947 88.4531 23.6539 89.705 23.7083 91.7425C23.7765 94.2917 22.4218 97.8254 19.7126 98.9848C16.6689 100.287 12.998 98.13 11.2216 95.988C10.1617 94.7098 9.85396 93.5307 9.39024 92.0755C7.31777 85.5714 6.14693 86.1597 4.56205 81.0039C2.75024 75.11 2.39406 68.2049 4.56205 66.0199C4.84941 65.7303 5.64022 65.0609 6.1437 63.8555C6.8212 62.2336 6.2359 61.4188 6.80966 60.7755Z" fill="#40D3A9"/>
<path d="M25.7485 94.2299C26.7423 95.4925 26.8963 97.0287 26.0927 97.661C25.289 98.2933 23.8323 97.7822 22.8383 96.519C22.4344 96.0199 22.1558 95.4312 22.026 94.8024L17.8831 89.3995L20.0238 87.7666L24.2706 93.0363C24.8515 93.3104 25.3583 93.7197 25.7485 94.2299Z" fill="#FFB6B6"/>
<path d="M10.5755 66.2524C10.7598 66.2112 12.3728 65.8769 13.641 66.8583C15.0977 67.9857 15.0271 70.0196 15.0023 70.733C14.9452 72.3809 14.2994 72.6497 13.9152 74.2662C13.1964 77.2904 14.5653 80.101 15.3215 81.6537C15.5833 82.1912 16.4243 83.8358 18.0983 85.607C21.3542 89.0517 24.2592 90.8643 24.2592 90.8643L21.1384 93.6384C21.1384 93.6384 16.1672 92.1232 12.7988 89.0875C9.34359 85.9736 4.03004 74.9561 2.92853 72.2722C2.83367 72.0411 4.17737 75.7986 6.74298 70.2942C7.32819 69.0386 8.40042 66.7381 10.5755 66.2524Z" fill="#40D3A9"/>
<path d="M90.4503 63.6686L86.7241 61.9035C88.2524 64.0364 89.5694 67.3675 90.2744 70.0181C91.4681 67.549 93.3925 64.5279 95.2973 62.7232L91.3591 63.7364C93.7858 51.8432 102.913 43.3051 113.365 43.3051L113.513 42.8755C102.596 42.8755 92.9281 51.2953 90.4503 63.6686Z" fill="#3F3D56"/>
<path d="M107.601 81.7901H84.0569C83.0583 81.7901 82.2458 80.9776 82.2458 79.979C82.2458 78.9804 83.0583 78.168 84.0569 78.168H107.601C108.599 78.168 109.412 78.9804 109.412 79.979C109.412 80.9776 108.599 81.7901 107.601 81.7901Z" fill="#40D3A9"/>
<path d="M138.929 81.7901H115.385C114.386 81.7901 113.574 80.9776 113.574 79.979C113.574 78.9804 114.386 78.168 115.385 78.168H138.929C139.927 78.168 140.74 78.9804 140.74 79.979C140.74 80.9776 139.927 81.7901 138.929 81.7901Z" fill="#E6E6E6"/>
<path d="M124.991 32.5218H102.105C101.528 32.5218 101.059 32.0524 101.059 31.4754C101.059 30.8984 101.528 30.4292 102.105 30.4292H124.991C125.568 30.4292 126.037 30.8984 126.037 31.4754C126.037 32.0524 125.568 32.5218 124.991 32.5218Z" fill="#3F3D56"/>
<path d="M137.271 43.6854H89.8245C89.2475 43.6854 88.7781 43.2159 88.7781 42.639C88.7781 42.062 89.2475 41.5928 89.8245 41.5928H137.271C137.848 41.5928 138.318 42.062 138.318 42.639C138.318 43.216 137.848 43.6854 137.271 43.6854Z" fill="#3F3D56"/>
<path d="M10.7874 144.353C10.7874 144.541 10.9383 144.692 11.1263 144.692H159.874C160.062 144.692 160.213 144.541 160.213 144.353C160.213 144.165 160.062 144.014 159.874 144.014H11.1263C10.9383 144.014 10.7874 144.165 10.7874 144.353Z" fill="#3F3D56"/>
<path d="M47.312 64.0146C47.2717 64.0146 47.2315 64.0131 47.191 64.0106C44.8075 63.8575 36.652 62.7036 31.7832 54.2853C31.382 53.5922 31.4611 52.711 31.9798 52.0928L40.9966 41.3497C41.3653 40.9104 41.9349 40.6572 42.5118 40.6642C42.9105 40.6737 43.8545 40.7744 44.0379 41.5021C45.121 45.8016 49.6949 50.8569 55.1955 51.527C55.7531 51.5948 56.2007 52.0922 56.3928 52.8575C56.5427 53.4533 56.4042 54.0674 56.0127 54.5425L48.7895 63.3137C48.4225 63.7592 47.8841 64.0146 47.312 64.0146ZM42.4772 41.0964C42.0365 41.0964 41.608 41.2938 41.3278 41.6276L32.3111 52.3707C31.9087 52.8501 31.8471 53.5325 32.1574 54.0687C36.9189 62.3014 44.8894 63.4294 47.2188 63.5791C47.6945 63.611 48.1512 63.4083 48.4557 63.0388L55.679 54.2676C55.9823 53.8996 56.0895 53.4242 55.9735 52.9629C55.8601 52.5113 55.5824 52.0096 55.1432 51.956C49.4607 51.264 44.7367 46.0457 43.6186 41.6077C43.528 41.2484 42.9828 41.108 42.5028 41.0966C42.4943 41.0964 42.4857 41.0964 42.4772 41.0964Z" fill="#3F3D56"/>
<path d="M37.2475 54.6388L43.7482 48.0106C44.1926 47.5575 43.4964 46.8602 43.0515 47.3138L36.5508 53.942C36.1064 54.3951 36.8026 55.0924 37.2475 54.6388Z" fill="#E6E6E6"/>
<path d="M41.171 56.506C42.9651 54.8979 44.5242 53.036 45.8008 50.9929C46.1378 50.4536 45.2856 49.9584 44.95 50.4956C43.7158 52.4708 42.2085 54.2548 40.4743 55.8092C40.0011 56.2334 40.6998 56.9283 41.171 56.506Z" fill="#E6E6E6"/>
<path d="M44.7073 58.7423C46.3408 56.9328 47.7312 54.9133 48.8259 52.735C49.1099 52.1699 48.2602 51.6704 47.9751 52.2377C46.9175 54.3424 45.5892 56.2969 44.0106 58.0455C43.5866 58.5152 44.2813 59.2142 44.7073 58.7423Z" fill="#E6E6E6"/>
<path d="M41.9222 46.8093C45.5418 46.8093 48.4761 43.9368 48.4761 40.3934C48.4761 36.85 45.5418 33.9775 41.9222 33.9775C38.3025 33.9775 35.3682 36.85 35.3682 40.3934C35.3682 43.9368 38.3025 46.8093 41.9222 46.8093Z" fill="#40D3A9"/>
<path d="M45.3323 43.4367C44.3243 40.9585 43.3163 38.4802 42.3083 36.002C42.1691 35.6597 41.733 35.6476 41.5972 36.002C40.6012 38.6002 39.9504 41.3114 39.6375 44.0757C39.5842 44.5465 40.3222 44.5427 40.375 44.0757C40.4975 42.9939 40.6793 41.9203 40.9126 40.8581C41.7432 40.9017 42.5806 40.8085 43.3821 40.5866C43.7951 41.602 44.2081 42.6174 44.6211 43.6328C44.7976 44.0667 45.5113 43.8769 45.3323 43.4367ZM41.0798 40.129C41.3283 39.1122 41.6261 38.1074 41.9716 37.1188L43.102 39.8979C42.4399 40.0717 41.7628 40.149 41.0798 40.129Z" fill="white"/>
</g>
<defs>
<clipPath id="clip0_487_3792">
<rect width="170" height="143.987" fill="white" transform="translate(0.5 0.70459)"/>
</clipPath>
</defs>
</svg>
