<svg width="155" height="170" viewBox="0 0 155 170" fill="none" xmlns="http://www.w3.org/2000/svg">
<g clip-path="url(#clip0_487_3793)">
<path d="M85.9111 161.317C94.4501 156.077 100.818 146.414 99.8393 136.443C92.0711 144.082 81.8513 148.727 70.9881 149.556C66.7975 149.861 62.1048 149.763 59.0561 152.655C57.1591 154.454 56.301 157.135 56.1896 159.747C56.0783 162.359 56.6362 164.948 57.191 167.503L57.0205 168.133C67.0385 168.035 77.3722 166.556 85.9111 161.317Z" fill="#F0F0F0"/>
<path d="M99.6292 136.436C96.282 144.023 90.6295 150.362 83.4743 154.554C81.95 155.483 80.2886 156.167 78.5514 156.579C76.8462 156.926 75.0792 156.81 73.4339 156.243C71.8893 155.746 70.3669 155.058 68.7282 154.944C67.8885 154.898 67.0486 155.031 66.2636 155.332C65.4786 155.634 64.7663 156.098 64.1733 156.694C62.6571 158.142 61.7513 160.047 60.9303 161.942C60.0187 164.045 59.1052 166.245 57.3236 167.772C57.1078 167.958 57.4076 168.282 57.6232 168.097C60.7229 165.439 61.1753 161.051 63.6397 157.936C64.7896 156.483 66.3845 155.367 68.2971 155.37C69.9696 155.373 71.5401 156.081 73.0997 156.598C74.6966 157.175 76.4104 157.352 78.0913 157.113C79.8439 156.791 81.5288 156.172 83.0739 155.284C86.5843 153.341 89.7673 150.858 92.5062 147.926C95.6508 144.597 98.2027 140.754 100.052 136.565C100.166 136.305 99.7427 136.178 99.6292 136.436Z" fill="white"/>
<path d="M85.8576 153.339C86.7238 154.444 87.9546 155.205 89.3302 155.487C90.7058 155.768 92.1366 155.551 93.367 154.875C93.6155 154.737 93.4133 154.345 93.1644 154.483C92.0198 155.114 90.687 155.316 89.4066 155.052C88.1262 154.787 86.9825 154.073 86.182 153.04C86.0078 152.815 85.6844 153.116 85.8576 153.339Z" fill="white"/>
<path d="M74.184 156.599C74.5036 153.747 75.8866 151.12 78.0572 149.242C78.2724 149.056 77.9726 148.732 77.7577 148.917C75.5026 150.876 74.0689 153.612 73.7428 156.581C73.7119 156.864 74.1532 156.88 74.184 156.599Z" fill="white"/>
<path d="M95.1005 144.397C94.6763 144.039 94.3475 143.581 94.1438 143.065C93.94 142.549 93.8677 141.99 93.9332 141.439C93.9677 141.157 93.5263 141.141 93.492 141.422C93.4225 142.031 93.5031 142.648 93.7269 143.219C93.9508 143.789 94.311 144.297 94.7761 144.696C94.8168 144.738 94.8717 144.762 94.9297 144.764C94.9876 144.766 95.0442 144.747 95.0881 144.709C95.1308 144.669 95.1561 144.614 95.1585 144.555C95.1608 144.497 95.1399 144.44 95.1005 144.397Z" fill="white"/>
<path d="M71.7134 117.482C71.6868 117.658 71.6603 117.833 71.6304 118.011C71.2614 120.372 70.7012 122.699 69.9553 124.97C69.9005 125.146 69.8422 125.324 69.7823 125.499C67.927 130.95 65.0758 136.009 61.3736 140.419C59.8988 142.173 58.2927 143.812 56.5693 145.321C54.189 147.406 51.4423 149.478 49.9343 152.149C49.7738 152.426 49.6306 152.712 49.5056 153.007L56.2651 167.876C56.2975 167.902 56.3265 167.93 56.3589 167.956L56.6016 168.562C56.6959 168.491 56.7922 168.414 56.8865 168.343C56.9414 168.301 56.9948 168.257 57.0497 168.215C57.0858 168.187 57.1219 168.158 57.1561 168.134C57.1682 168.125 57.1801 168.115 57.1888 168.107C57.2231 168.083 57.2523 168.058 57.2832 168.036C57.8226 167.61 58.3599 167.18 58.8952 166.746C58.8986 166.744 58.8986 166.744 58.9005 166.74C62.9708 163.42 66.7997 159.731 69.9469 155.578C70.0416 155.453 70.1397 155.326 70.2313 155.195C71.6395 153.315 72.8918 151.323 73.9755 149.239C74.5653 148.096 75.0968 146.924 75.568 145.727C76.7797 142.633 77.4971 139.367 77.6939 136.05C78.0853 129.437 76.3574 122.772 72.0464 117.854C71.936 117.729 71.8271 117.606 71.7134 117.482Z" fill="#F0F0F0"/>
<path d="M71.5399 117.601C73.4353 125.674 72.7388 134.139 69.5494 141.794C68.892 143.454 67.9771 145 66.8383 146.375C65.6856 147.679 64.2049 148.65 62.55 149.188C61.017 149.72 59.3872 150.088 58.0104 150.983C57.3124 151.453 56.7215 152.064 56.2764 152.777C55.8312 153.491 55.5419 154.29 55.4274 155.123C55.0882 157.192 55.5124 159.259 55.9975 161.266C56.5361 163.494 57.1308 165.8 56.6282 168.093C56.5673 168.37 57.0019 168.449 57.0627 168.171C57.9371 164.183 55.6567 160.407 55.7491 156.436C55.7922 154.583 56.394 152.732 57.9229 151.583C59.2599 150.578 60.9402 150.198 62.497 149.673C64.1192 149.171 65.5939 148.281 66.7925 147.078C67.9976 145.766 68.9706 144.257 69.6697 142.618C71.3025 138.953 72.3489 135.054 72.7705 131.064C73.2769 126.513 73.001 121.908 71.9548 117.45C71.89 117.174 71.4755 117.327 71.5399 117.601Z" fill="white"/>
<path d="M70.7214 139.389C72.0783 139.75 73.5192 139.617 74.7869 139.013C76.0546 138.41 77.0665 137.375 77.6418 136.094C77.7574 135.835 77.3595 135.643 77.2438 135.903C76.7102 137.097 75.7676 138.06 74.586 138.62C73.4043 139.179 72.0616 139.298 70.8 138.955C70.5258 138.88 70.4487 139.315 70.7214 139.389Z" fill="white"/>
<path d="M63.3628 149.02C61.9007 146.55 61.4233 143.62 62.0258 140.814C62.0857 140.536 61.6511 140.457 61.5913 140.735C60.9698 143.657 61.4728 146.705 62.9999 149.272C63.1456 149.516 63.5077 149.263 63.3628 149.02Z" fill="white"/>
<path d="M72.7172 126.684C72.1631 126.654 71.6252 126.487 71.1518 126.197C70.6783 125.908 70.2842 125.505 70.0047 125.026C69.8622 124.78 69.5003 125.033 69.6419 125.278C69.9531 125.806 70.3889 126.25 70.9113 126.571C71.4337 126.892 72.0267 127.08 72.6386 127.119C72.6959 127.127 72.7544 127.114 72.8021 127.081C72.8497 127.048 72.883 126.998 72.8952 126.941C72.9053 126.883 72.8923 126.824 72.859 126.776C72.8257 126.728 72.7747 126.695 72.7172 126.684Z" fill="white"/>
<path d="M30.5824 165.653L34.8703 165.652L36.9102 149.113L30.5818 149.114L30.5824 165.653Z" fill="#FFB6B6"/>
<path d="M29.4888 164.253L30.6957 164.253L35.4077 162.336L37.9332 164.252H37.9336C39.3608 164.252 40.7295 164.819 41.7387 165.829C42.7479 166.838 43.3149 168.207 43.315 169.634V169.809L29.489 169.809L29.4888 164.253Z" fill="#2F2E41"/>
<path d="M50.5033 165.653L54.7912 165.652L56.8311 149.113L50.5027 149.114L50.5033 165.653Z" fill="#FFB6B6"/>
<path d="M49.4097 164.253L50.6166 164.253L55.3286 162.336L57.8541 164.252H57.8544C59.2817 164.252 60.6504 164.819 61.6596 165.829C62.6688 166.838 63.2358 168.207 63.2359 169.634V169.809L49.4099 169.809L49.4097 164.253Z" fill="#2F2E41"/>
<path d="M27.1694 59.7627L32.8381 77.1931L50.7082 76.6072L45.2171 59.7627H27.1694Z" fill="#E6E6E6"/>
<path d="M53.9308 75.1426L20.2412 76.0214L20.8271 92.4268C20.8271 92.4268 20.2412 96.8211 21.413 97.9929C22.5848 99.1647 23.1707 99.1647 22.5848 101.215C21.9989 103.266 25.0945 106.615 24.7185 106.991C24.3426 107.367 23.4637 109.418 23.4637 109.418L26.3932 126.116C26.3932 126.116 28.4439 155.119 29.0298 155.705C29.6157 156.291 30.2016 155.705 29.6157 157.17C29.0298 158.634 28.4439 158.048 29.0298 158.634C29.5488 159.194 30.0378 159.781 30.4946 160.392H37.5774C37.5774 160.392 38.1114 157.462 38.1114 157.17C38.1114 156.877 38.6973 155.119 38.6973 154.826C38.6973 154.533 38.1794 154.015 38.1794 154.015C38.0005 153.42 37.8796 152.808 37.8184 152.189C37.8184 151.603 36.0607 129.046 36.0607 129.046L39.5761 99.7507L48.0718 128.46C48.0718 128.46 48.0718 153.654 48.6577 154.24C49.2436 154.826 49.2436 154.533 48.9506 155.705C48.6577 156.877 47.4859 156.584 48.3647 157.462C49.2436 158.341 49.5365 156.877 49.2436 158.341L48.9506 159.806L57.7392 159.932C57.7392 159.932 58.911 157.462 58.3251 156.584C57.7392 155.705 57.7744 155.945 58.4892 154.506C59.204 153.068 59.4969 152.775 59.204 152.482C58.911 152.189 58.911 150.631 58.911 150.631L57.4463 122.601C57.4463 122.601 57.1533 93.0127 57.1533 92.1339C57.1312 91.6816 57.2146 91.2305 57.3967 90.8159V89.623L56.2745 85.3959L53.9308 75.1426Z" fill="#2F2E41"/>
<path d="M50.855 32.5179L40.6016 28.7095L23.6103 29.8813L19.6761 31.7173C18.2923 32.363 17.1658 33.4553 16.4777 34.8185C15.7896 36.1817 15.5798 37.7367 15.882 39.2336L20.9737 64.4498L17.7512 89.3508C17.7512 89.3508 33.7172 97.1141 38.6974 76.9003L40.4551 69.2835C40.4551 69.2835 41.041 92.7198 57.7394 87.7396C57.7394 87.7396 57.4464 83.0523 57.1535 81.2946C56.8605 79.5369 56.2746 79.5369 55.9816 78.658C55.6887 77.7791 55.1028 78.658 55.6887 76.9003C56.2746 75.1426 51.0014 62.8385 51.0014 62.8385L50.855 32.5179Z" fill="#2F2E41"/>
<path d="M37.2325 51.999L26.2896 29.6962L29.0298 24.7544H37.9095L41.427 29.016L37.2325 51.999Z" fill="#E6E6E6"/>
<path d="M31.7723 76.2703C31.2948 76.2979 30.8171 76.2204 30.3728 76.0433C29.9286 75.8663 29.5285 75.594 29.2009 75.2456C28.8732 74.8972 28.626 74.4813 28.4765 74.027C28.327 73.5727 28.2789 73.0911 28.3357 72.6163L17.8826 67.5291L23.0799 64.4497L32.2095 69.7527C33.001 69.9009 33.7105 70.3343 34.2038 70.9707C34.697 71.6071 34.9397 72.4023 34.8858 73.2057C34.8319 74.0091 34.4852 74.7648 33.9113 75.3296C33.3375 75.8945 32.5764 76.2292 31.7723 76.2703Z" fill="#FFB8B8"/>
<path d="M10.3029 63.8461C9.80422 63.2373 9.22446 58.9939 10.3175 57.9982C11.2392 57.1585 11.0381 56.7681 10.4521 55.889C9.94311 55.1255 13.8501 41.0296 16.0958 34.4797C16.3952 33.6085 17.0138 32.8833 17.8269 32.4504C18.64 32.0174 19.587 31.909 20.4769 32.1469C21.3668 32.3848 22.1334 32.9514 22.6219 33.7323C23.1105 34.5132 23.2847 35.4504 23.1094 36.3547C23.9022 44.7405 22.7748 50.4595 19.5624 54.3325L29.487 67.4808L27.6658 74.1588C27.6658 74.1588 10.7573 64.4008 10.3029 63.8461Z" fill="#2F2E41"/>
<path d="M33.5706 21.6787C38.5862 21.6787 42.6521 17.6128 42.6521 12.5972C42.6521 7.58157 38.5862 3.51562 33.5706 3.51562C28.555 3.51562 24.489 7.58157 24.489 12.5972C24.489 17.6128 28.555 21.6787 33.5706 21.6787Z" fill="#FFB8B8"/>
<path d="M43.1877 6.00887C42.9464 3.83689 39.8091 1.66492 34.2585 0.216943C28.7079 -1.23105 25.812 5.04354 25.812 5.04354C21.9507 6.97418 24.2433 17.2307 25.4499 16.2654C26.6566 15.3001 27.7426 16.8687 27.7426 16.8687L28.6355 8.83252C29.9066 9.80659 31.3393 10.6313 32.8772 10.3862L30.995 8.53301C32.7788 9.30916 34.5626 10.0853 36.3465 10.8615C35.7559 10.0489 35.1654 9.23636 34.5749 8.4238C34.6359 8.42184 34.697 8.41916 34.7581 8.41684C35.5601 9.08375 36.4782 9.59711 37.4663 9.93118C38.6368 10.2667 40.0394 10.0852 40.8414 9.16892C41.0574 8.91605 41.2205 8.62248 41.3211 8.30554C42.7775 9.30302 43.0671 11.4388 43.0671 11.4388C43.0671 11.4388 43.429 8.18084 43.1877 6.00887Z" fill="#2F2E41"/>
<path d="M35.2448 71.1659C43.9237 71.1659 50.9593 64.1302 50.9593 55.4513C50.9593 46.7725 43.9237 39.7368 35.2448 39.7368C26.5659 39.7368 19.5303 46.7725 19.5303 55.4513C19.5303 64.1302 26.5659 71.1659 35.2448 71.1659Z" fill="#40D3A9"/>
<path d="M38.0876 66.0877C38.3501 65.6879 38.6971 65.3505 39.1041 65.0994C39.5111 64.8482 39.9682 64.6894 40.4432 64.634C40.9182 64.5786 41.3996 64.628 41.8535 64.7788C42.3074 64.9296 42.7226 65.178 43.0701 65.5067L53.3858 60.1465L52.7601 66.1551L43.06 70.324C42.4692 70.8711 41.6982 71.1825 40.8932 71.1991C40.0882 71.2158 39.3051 70.9365 38.6922 70.4144C38.0793 69.8922 37.6792 69.1633 37.5678 68.3659C37.4564 67.5684 37.6413 66.7578 38.0876 66.0877Z" fill="#FFB8B8"/>
<path d="M44.4558 70.0573L42.6345 63.3793L51.6803 54.6254C48.4678 50.7523 47.3405 45.0332 48.1333 36.6475C47.9577 35.743 48.1318 34.8057 48.6203 34.0246C49.1089 33.2435 49.8755 32.6768 50.7656 32.4389C51.6556 32.2009 52.6027 32.3095 53.4159 32.7426C54.229 33.1757 54.8476 33.9011 55.1468 34.7724C57.3926 41.3224 59.9424 49.3852 59.335 50.5999C59.2542 50.7616 59.1808 50.9059 59.1149 51.0355C58.5709 52.1052 58.5709 52.1052 59.1004 52.7934C59.1665 52.8793 59.2402 52.975 59.3211 53.0832C59.5262 53.3565 59.7472 53.6136 59.961 53.862C60.6493 54.6624 61.2996 55.4184 60.7906 56.1818C60.2046 57.0609 60.0034 57.4513 60.9252 58.291C62.0182 59.2867 61.4385 63.5301 60.9398 64.1389C60.4854 64.6936 47.251 69.1255 44.6026 70.0082L44.4558 70.0573Z" fill="#2F2E41"/>
<path d="M87.3286 170H0.769324C0.697895 170 0.629388 169.972 0.57888 169.921C0.528371 169.871 0.5 169.802 0.5 169.731C0.5 169.659 0.528371 169.591 0.57888 169.54C0.629388 169.49 0.697895 169.461 0.769324 169.461H87.3286C87.364 169.461 87.3992 169.468 87.4319 169.482C87.4647 169.495 87.4945 169.515 87.5196 169.54C87.5447 169.565 87.5646 169.595 87.5782 169.627C87.5918 169.66 87.5988 169.695 87.5988 169.731C87.5988 169.766 87.5918 169.801 87.5782 169.834C87.5646 169.867 87.5447 169.896 87.5196 169.922C87.4945 169.947 87.4647 169.966 87.4319 169.98C87.3992 169.993 87.364 170 87.3286 170Z" fill="#CCCCCC"/>
<path d="M151.975 26.0218H120.321C119.661 26.021 119.028 25.7585 118.561 25.2916C118.094 24.8248 117.832 24.1919 117.831 23.5317V7.77672C117.832 7.11653 118.094 6.48359 118.561 6.01677C119.028 5.54994 119.661 5.28736 120.321 5.28662H151.975C152.635 5.28736 153.268 5.54994 153.735 6.01677C154.202 6.48359 154.465 7.11653 154.465 7.77672V23.5317C154.465 24.1919 154.202 24.8248 153.735 25.2916C153.268 25.7585 152.635 26.021 151.975 26.0218Z" fill="#E6E6E6"/>
<path d="M146.775 34.2746H125.451C124.824 34.2739 124.223 34.0243 123.78 33.5807C123.337 33.1371 123.088 32.5358 123.088 31.9088C123.088 31.2818 123.337 30.6804 123.78 30.2368C124.223 29.7932 124.824 29.5437 125.451 29.543H146.775C147.086 29.5426 147.394 29.6036 147.681 29.7223C147.968 29.841 148.23 30.0152 148.45 30.235C148.669 30.4547 148.844 30.7156 148.963 31.0028C149.082 31.29 149.143 31.5979 149.143 31.9088C149.143 32.2197 149.082 32.5275 148.963 32.8147C148.844 33.1019 148.669 33.3629 148.45 33.5826C148.23 33.8023 147.968 33.9765 147.681 34.0952C147.394 34.214 147.086 34.2749 146.775 34.2746Z" fill="#E6E6E6"/>
<path d="M151.975 71.2405H120.321C119.661 71.2398 119.028 70.9772 118.561 70.5104C118.094 70.0436 117.832 69.4106 117.831 68.7504V52.9955C117.832 52.3353 118.094 51.7023 118.561 51.2355C119.028 50.7687 119.661 50.5061 120.321 50.5054H151.975C152.635 50.5061 153.268 50.7687 153.735 51.2355C154.202 51.7023 154.465 52.3353 154.465 52.9955V68.7504C154.465 69.4106 154.202 70.0436 153.735 70.5104C153.268 70.9772 152.635 71.2398 151.975 71.2405Z" fill="#E6E6E6"/>
<path d="M146.775 78.9499H125.451C124.824 78.9499 124.222 78.7006 123.778 78.2569C123.335 77.8133 123.085 77.2115 123.085 76.5841C123.085 75.9566 123.335 75.3549 123.778 74.9112C124.222 74.4675 124.824 74.2183 125.451 74.2183H146.775C147.402 74.2183 148.004 74.4675 148.448 74.9112C148.891 75.3549 149.141 75.9566 149.141 76.5841C149.141 77.2115 148.891 77.8133 148.448 78.2569C148.004 78.7006 147.402 78.9499 146.775 78.9499Z" fill="#E6E6E6"/>
<path d="M151.975 116.167H120.321C119.661 116.166 119.028 115.903 118.561 115.437C118.094 114.97 117.832 114.337 117.831 113.677V97.9217C117.832 97.2616 118.094 96.6286 118.561 96.1618C119.028 95.695 119.661 95.4324 120.321 95.4316H151.975C152.635 95.4324 153.268 95.695 153.735 96.1618C154.202 96.6286 154.465 97.2616 154.465 97.9217V113.677C154.465 114.337 154.202 114.97 153.735 115.437C153.268 115.903 152.635 116.166 151.975 116.167Z" fill="#E6E6E6"/>
<path d="M146.775 123.919H125.451C124.824 123.918 124.223 123.668 123.78 123.225C123.337 122.781 123.088 122.18 123.088 121.553C123.088 120.926 123.337 120.324 123.78 119.881C124.223 119.437 124.824 119.188 125.451 119.187H146.775C147.086 119.187 147.394 119.248 147.681 119.366C147.968 119.485 148.23 119.659 148.45 119.879C148.669 120.099 148.844 120.36 148.963 120.647C149.082 120.934 149.143 121.242 149.143 121.553C149.143 121.864 149.082 122.172 148.963 122.459C148.844 122.746 148.669 123.007 148.45 123.227C148.23 123.446 147.968 123.621 147.681 123.739C147.394 123.858 147.086 123.919 146.775 123.919Z" fill="#E6E6E6"/>
<path d="M33.3944 62.8029C33.1719 62.8023 32.9531 62.7453 32.7585 62.6373C32.5503 62.525 32.3766 62.3581 32.2562 62.1545C32.1358 61.9509 32.0731 61.7184 32.075 61.4819V50.5917C32.075 50.3556 32.1384 50.1238 32.2586 49.9205C32.3789 49.7173 32.5515 49.5501 32.7584 49.4364C32.9653 49.3226 33.199 49.2666 33.4351 49.2741C33.6711 49.2816 33.9007 49.3523 34.1001 49.479L44.4305 54.9241C44.6179 55.0431 44.7721 55.2075 44.879 55.402C44.9859 55.5965 45.0419 55.8148 45.0419 56.0368C45.0419 56.2587 44.9859 56.4771 44.879 56.6716C44.7721 56.8661 44.6179 57.0305 44.4305 57.1495L34.1001 62.5946C33.8895 62.7299 33.6447 62.8022 33.3944 62.8029Z" fill="white"/>
<path d="M132.821 21.072C132.641 21.0715 132.465 21.0255 132.308 20.9383C132.14 20.8476 131.999 20.7129 131.902 20.5485C131.805 20.3841 131.754 20.1964 131.756 20.0054V11.2128C131.756 11.0221 131.807 10.835 131.904 10.6709C132.001 10.5068 132.141 10.3718 132.308 10.28C132.475 10.1882 132.663 10.1429 132.854 10.149C133.045 10.155 133.23 10.2121 133.391 10.3144L141.732 14.7107C141.883 14.8068 142.007 14.9395 142.094 15.0966C142.18 15.2536 142.225 15.4299 142.225 15.6091C142.225 15.7883 142.18 15.9646 142.094 16.1217C142.007 16.2787 141.883 16.4114 141.732 16.5075L133.391 20.9038C133.221 21.0131 133.023 21.0714 132.821 21.072Z" fill="white"/>
<path d="M132.744 66.4797C132.565 66.4792 132.388 66.4332 132.231 66.346C132.063 66.2553 131.923 66.1206 131.825 65.9562C131.728 65.7919 131.677 65.6041 131.679 65.4131V56.6205C131.679 56.4299 131.73 56.2427 131.827 56.0786C131.924 55.9145 132.064 55.7795 132.231 55.6877C132.398 55.5959 132.587 55.5506 132.777 55.5567C132.968 55.5627 133.153 55.6199 133.314 55.7221L141.655 60.1184C141.806 60.2145 141.931 60.3472 142.017 60.5043C142.103 60.6613 142.148 60.8376 142.148 61.0168C142.148 61.196 142.103 61.3723 142.017 61.5294C141.931 61.6864 141.806 61.8191 141.655 61.9152L133.314 66.3116C133.144 66.4208 132.946 66.4792 132.744 66.4797Z" fill="white"/>
<path d="M132.667 111.887C132.488 111.887 132.311 111.841 132.154 111.754C131.986 111.663 131.846 111.528 131.748 111.364C131.651 111.2 131.601 111.012 131.602 110.821V102.028C131.602 101.838 131.653 101.65 131.75 101.486C131.847 101.322 131.987 101.187 132.154 101.095C132.321 101.004 132.51 100.958 132.7 100.964C132.891 100.97 133.076 101.028 133.237 101.13L141.578 105.526C141.729 105.622 141.854 105.755 141.94 105.912C142.026 106.069 142.071 106.245 142.071 106.425C142.071 106.604 142.026 106.78 141.94 106.937C141.854 107.094 141.729 107.227 141.578 107.323L133.237 111.719C133.067 111.829 132.869 111.887 132.667 111.887Z" fill="white"/>
</g>
<defs>
<clipPath id="clip0_487_3793">
<rect width="153.965" height="170" fill="white" transform="translate(0.5)"/>
</clipPath>
</defs>
</svg>
