<svg width="201" height="145" viewBox="0 0 201 145" fill="none" xmlns="http://www.w3.org/2000/svg">
<g clip-path="url(#clip0_487_3791)">
<path d="M200.211 143.365H0.789017C0.712365 143.365 0.638852 143.335 0.584651 143.28C0.53045 143.226 0.5 143.153 0.5 143.076C0.5 142.999 0.53045 142.926 0.584651 142.872C0.638852 142.818 0.712365 142.787 0.789017 142.787H200.211C200.288 142.787 200.361 142.818 200.415 142.872C200.47 142.926 200.5 142.999 200.5 143.076C200.5 143.153 200.47 143.226 200.415 143.28C200.361 143.335 200.288 143.365 200.211 143.365Z" fill="#CCCCCC"/>
<path d="M180.472 92.96H63.1313C62.6331 92.96 62.1552 93.1579 61.8029 93.5102C61.4506 93.8625 61.2527 94.3403 61.2527 94.8386C61.2527 95.3368 61.4506 95.8146 61.8029 96.167C62.1552 96.5193 62.6331 96.7172 63.1313 96.7172H66.455V141.659C66.455 142.158 66.6529 142.635 67.0052 142.988C67.3575 143.34 67.8354 143.538 68.3336 143.538C68.8318 143.538 69.3097 143.34 69.662 142.988C70.0143 142.635 70.2122 142.158 70.2122 141.659L70.2408 96.7172H173.102V141.659C173.102 142.158 173.3 142.635 173.653 142.988C174.005 143.34 174.483 143.538 174.981 143.538C175.479 143.538 175.957 143.34 176.309 142.988C176.662 142.635 176.86 142.158 176.86 141.659V97.7078L177.406 96.7172H180.472C180.971 96.7172 181.448 96.5193 181.801 96.167C182.153 95.8146 182.351 95.3368 182.351 94.8386C182.351 94.3403 182.153 93.8625 181.801 93.5102C181.448 93.1579 180.971 92.96 180.472 92.96Z" fill="#CCCCCC"/>
<path d="M128.186 93.943H92.6423C91.954 93.9423 91.2942 93.6685 90.8076 93.1819C90.3209 92.6952 90.0472 92.0354 90.0464 91.3471V71.778C90.0472 71.0898 90.3209 70.43 90.8076 69.9433C91.2942 69.4567 91.954 69.1829 92.6423 69.1821H128.186C128.874 69.1829 129.534 69.4567 130.021 69.9433C130.508 70.43 130.781 71.0898 130.782 71.778V91.3471C130.781 92.0354 130.508 92.6952 130.021 93.1819C129.534 93.6685 128.874 93.9423 128.186 93.943Z" fill="#3F3D56"/>
<path d="M128.186 71.1802H92.6424C92.4838 71.1805 92.3319 71.2436 92.2197 71.3558C92.1076 71.4679 92.0445 71.6199 92.0442 71.7784V91.3478C92.0445 91.5064 92.1076 91.6583 92.2198 91.7705C92.3319 91.8826 92.4838 91.9457 92.6424 91.9461H128.186C128.344 91.9457 128.496 91.8826 128.609 91.7705C128.721 91.6583 128.784 91.5064 128.784 91.3478V71.7784C128.784 71.6199 128.721 71.4679 128.609 71.3558C128.496 71.2436 128.344 71.1805 128.186 71.1802Z" fill="white"/>
<path d="M113.446 85.035C113.446 85.035 109.191 84.0545 106.85 85.852C104.51 87.6496 109.829 91.7349 109.829 91.7349L113.446 85.035Z" fill="#2F2E41"/>
<path d="M110.622 83.1825C112.839 83.1825 114.636 81.3855 114.636 79.1689C114.636 76.9522 112.839 75.1553 110.622 75.1553C108.406 75.1553 106.609 76.9522 106.609 79.1689C106.609 81.3855 108.406 83.1825 110.622 83.1825Z" fill="#A0616A"/>
<path d="M107.519 73.5346C107.787 73.0803 108.175 72.7089 108.64 72.4612C109.106 72.2135 109.63 72.0993 110.157 72.1312C110.707 72.2002 111.244 72.3506 111.751 72.5774L114.375 73.6009C115.054 73.8657 115.797 74.1902 116.092 74.8567C116.365 75.4754 116.161 76.1899 115.955 76.8339L114.973 79.8956C114.864 79.2027 114.678 78.5242 114.417 77.8732C114.152 77.2177 113.672 76.6713 113.057 76.3229C112.376 75.9733 111.572 75.9805 110.807 76.0173C109.724 76.0695 108.545 76.2073 107.776 76.9716C107.367 77.4056 107.09 77.9468 106.977 78.5321C106.865 79.1143 106.809 79.7057 106.809 80.2985C106.365 79.5347 105.99 78.7322 105.691 77.9009C105.444 77.282 105.304 76.6259 105.275 75.9602C105.249 75.2889 105.472 74.6316 105.901 74.1143C106.118 73.8615 106.402 73.6745 106.72 73.5743C107.039 73.4742 107.378 73.4649 107.702 73.5475L107.519 73.5346Z" fill="#2F2E41"/>
<path d="M120.206 88.5152C120.168 88.3796 120.091 88.2582 119.985 88.1662C119.879 88.0742 119.747 88.0156 119.608 87.9979C119.599 87.9914 119.589 87.9856 119.579 87.9805L113.587 84.6227C113.416 84.5268 113.215 84.5006 113.025 84.5494C112.835 84.5983 112.671 84.7186 112.567 84.8851L110.929 87.5383L108.46 85.0701L108.421 85.0309C108.295 84.9042 108.127 84.8262 107.949 84.8106C107.77 84.795 107.592 84.8428 107.445 84.9455L102.521 88.3938C102.512 88.3938 102.504 88.3967 102.495 88.3967C102.259 88.436 102.044 88.5545 101.885 88.7326C101.726 88.9108 101.632 89.1379 101.619 89.3765L101.492 91.9459H121.157L120.206 88.5152Z" fill="#40D3A9"/>
<path d="M131.181 91.5468H127.387C127.387 91.4409 127.345 91.3393 127.27 91.2644C127.195 91.1895 127.094 91.1475 126.988 91.1475H125.79C125.684 91.1475 125.582 91.1895 125.507 91.2644C125.433 91.3393 125.391 91.4409 125.391 91.5468H124.192C124.192 91.4409 124.15 91.3393 124.075 91.2644C124.001 91.1895 123.899 91.1475 123.793 91.1475H122.595C122.489 91.1475 122.387 91.1895 122.313 91.2644C122.238 91.3393 122.196 91.4409 122.196 91.5468H120.997C120.997 91.4409 120.955 91.3393 120.88 91.2644C120.806 91.1895 120.704 91.1475 120.598 91.1475H119.4C119.294 91.1475 119.192 91.1895 119.118 91.2644C119.043 91.3393 119.001 91.4409 119.001 91.5468H117.802C117.802 91.4409 117.76 91.3393 117.686 91.2644C117.611 91.1895 117.509 91.1475 117.403 91.1475H116.205C116.099 91.1475 115.998 91.1895 115.923 91.2644C115.848 91.3393 115.806 91.4409 115.806 91.5468H114.608C114.608 91.4409 114.565 91.3393 114.491 91.2644C114.416 91.1895 114.314 91.1475 114.208 91.1475H113.01C112.904 91.1475 112.803 91.1895 112.728 91.2644C112.653 91.3393 112.611 91.4409 112.611 91.5468H111.413C111.413 91.4409 111.37 91.3393 111.296 91.2644C111.221 91.1895 111.119 91.1475 111.013 91.1475H109.815C109.709 91.1475 109.608 91.1895 109.533 91.2644C109.458 91.3393 109.416 91.4409 109.416 91.5468H108.218C108.218 91.4409 108.176 91.3393 108.101 91.2644C108.026 91.1895 107.924 91.1475 107.818 91.1475H106.62C106.514 91.1475 106.413 91.1895 106.338 91.2644C106.263 91.3393 106.221 91.4409 106.221 91.5468H105.023C105.023 91.4409 104.981 91.3393 104.906 91.2644C104.831 91.1895 104.729 91.1475 104.623 91.1475H103.425C103.319 91.1475 103.218 91.1895 103.143 91.2644C103.068 91.3393 103.026 91.4409 103.026 91.5468H101.828C101.828 91.4409 101.786 91.3393 101.711 91.2644C101.636 91.1895 101.534 91.1475 101.428 91.1475H100.23C100.124 91.1475 100.023 91.1895 99.9478 91.2644C99.8729 91.3393 99.8309 91.4409 99.8309 91.5468H98.6327C98.6327 91.4409 98.5907 91.3393 98.5158 91.2644C98.4409 91.1895 98.3393 91.1475 98.2334 91.1475H97.0353C96.9294 91.1475 96.8278 91.1895 96.7529 91.2644C96.678 91.3393 96.6359 91.4409 96.6359 91.5468H95.4378C95.4378 91.4409 95.3957 91.3393 95.3208 91.2644C95.2459 91.1895 95.1444 91.1475 95.0384 91.1475H93.8403C93.7344 91.1475 93.6328 91.1895 93.5579 91.2644C93.483 91.3393 93.4409 91.4409 93.4409 91.5468H89.6469C89.3295 91.5473 89.0252 91.6738 88.8009 91.8984C88.5767 92.123 88.4507 92.4275 88.4507 92.7449C88.4507 93.0624 88.5767 93.3668 88.8009 93.5915C89.0252 93.8161 89.3295 93.9426 89.6469 93.943H131.181C131.499 93.943 131.804 93.8168 132.029 93.5921C132.253 93.3674 132.379 93.0627 132.379 92.7449C132.379 92.4272 132.253 92.1224 132.029 91.8978C131.804 91.6731 131.499 91.5468 131.181 91.5468Z" fill="#3F3D56"/>
<path d="M83.4707 84.5893V92.5447H63.5394C63.0054 92.5633 62.4731 92.4742 61.9743 92.2827C61.4755 92.0911 61.0204 91.8011 60.636 91.4299C60.2517 91.0587 59.946 90.6139 59.7372 90.1221C59.5285 89.6302 59.4209 89.1014 59.4209 88.567C59.4209 88.0327 59.5285 87.5038 59.7372 87.012C59.946 86.5201 60.2517 86.0753 60.636 85.7041C61.0204 85.3329 61.4755 85.0429 61.9743 84.8514C62.4731 84.6599 63.0054 84.5707 63.5394 84.5893H83.4707Z" fill="#F2F2F2"/>
<path d="M83.9604 92.4831C83.9604 92.5642 83.9282 92.642 83.8708 92.6994C83.8134 92.7568 83.7356 92.789 83.6544 92.7891H63.1846C62.0728 92.7891 61.0066 92.3474 60.2205 91.5613C59.4343 90.7751 58.9927 89.7089 58.9927 88.5972C58.9927 87.4854 59.4343 86.4192 60.2205 85.6331C61.0066 84.8469 62.0728 84.4053 63.1846 84.4053H83.6544C83.7356 84.4053 83.8134 84.4375 83.8708 84.4949C83.9282 84.5523 83.9604 84.6301 83.9604 84.7113C83.9604 84.7924 83.9282 84.8702 83.8708 84.9276C83.8134 84.985 83.7356 85.0172 83.6544 85.0172H63.1846C62.2357 85.0181 61.3259 85.3956 60.6552 86.0669C59.9846 86.7382 59.6078 87.6483 59.6078 88.5972C59.6078 89.5461 59.9846 90.4561 60.6552 91.1274C61.3259 91.7987 62.2357 92.1762 63.1846 92.1771H83.6544C83.7356 92.1771 83.8134 92.2094 83.8708 92.2667C83.9281 92.3241 83.9604 92.4019 83.9604 92.4831Z" fill="#40D3A9"/>
<path d="M83.4707 86.4251H62.0523C62.0443 86.4252 62.0363 86.4236 62.0288 86.4206C62.0213 86.4175 62.0145 86.413 62.0088 86.4074C62.0031 86.4017 61.9985 86.3949 61.9954 86.3875C61.9923 86.38 61.9907 86.372 61.9907 86.3639C61.9907 86.3559 61.9923 86.3479 61.9954 86.3404C61.9985 86.333 62.0031 86.3262 62.0088 86.3205C62.0145 86.3148 62.0213 86.3103 62.0288 86.3073C62.0363 86.3042 62.0443 86.3027 62.0523 86.3027H83.4707C83.4869 86.3028 83.5024 86.3093 83.5138 86.3208C83.5251 86.3323 83.5315 86.3478 83.5315 86.3639C83.5315 86.3801 83.5251 86.3956 83.5138 86.4071C83.5024 86.4185 83.4869 86.425 83.4707 86.4251Z" fill="#CCCCCC"/>
<path d="M83.4707 87.8939H62.0523C62.0443 87.8939 62.0363 87.8924 62.0288 87.8893C62.0213 87.8863 62.0145 87.8818 62.0088 87.8761C62.0031 87.8704 61.9985 87.8636 61.9954 87.8562C61.9923 87.8487 61.9907 87.8408 61.9907 87.8327C61.9907 87.8246 61.9923 87.8166 61.9954 87.8092C61.9985 87.8017 62.0031 87.7949 62.0088 87.7893C62.0145 87.7836 62.0213 87.7791 62.0288 87.776C62.0363 87.773 62.0443 87.7714 62.0523 87.7715H83.4707C83.4869 87.7716 83.5024 87.7781 83.5138 87.7895C83.5251 87.801 83.5315 87.8165 83.5315 87.8327C83.5315 87.8488 83.5251 87.8643 83.5138 87.8758C83.5024 87.8873 83.4869 87.8938 83.4707 87.8939Z" fill="#CCCCCC"/>
<path d="M83.4707 89.3621H62.0523C62.0443 89.3622 62.0363 89.3607 62.0288 89.3576C62.0213 89.3546 62.0145 89.3501 62.0088 89.3444C62.0031 89.3387 61.9985 89.3319 61.9954 89.3245C61.9923 89.317 61.9907 89.309 61.9907 89.3009C61.9907 89.2929 61.9923 89.2849 61.9954 89.2774C61.9985 89.27 62.0031 89.2632 62.0088 89.2575C62.0145 89.2518 62.0213 89.2473 62.0288 89.2443C62.0363 89.2412 62.0443 89.2397 62.0523 89.2397H83.4707C83.4869 89.2399 83.5024 89.2464 83.5138 89.2578C83.5251 89.2693 83.5315 89.2848 83.5315 89.3009C83.5315 89.3171 83.5251 89.3326 83.5138 89.3441C83.5024 89.3555 83.4869 89.362 83.4707 89.3621Z" fill="#CCCCCC"/>
<path d="M83.4707 90.8309H62.0523C62.0443 90.8309 62.0363 90.8294 62.0288 90.8264C62.0213 90.8233 62.0145 90.8188 62.0088 90.8131C62.0031 90.8074 61.9985 90.8007 61.9954 90.7932C61.9923 90.7858 61.9907 90.7778 61.9907 90.7697C61.9907 90.7616 61.9923 90.7536 61.9954 90.7462C61.9985 90.7387 62.0031 90.732 62.0088 90.7263C62.0145 90.7206 62.0213 90.7161 62.0288 90.713C62.0363 90.71 62.0443 90.7084 62.0523 90.7085H83.4707C83.4869 90.7086 83.5024 90.7151 83.5138 90.7266C83.5251 90.738 83.5315 90.7535 83.5315 90.7697C83.5315 90.7858 83.5251 90.8014 83.5138 90.8128C83.5024 90.8243 83.4869 90.8308 83.4707 90.8309Z" fill="#CCCCCC"/>
<path d="M79.7136 76.2075V84.1629H59.7824C59.2483 84.1815 58.7161 84.0923 58.2172 83.9008C57.7184 83.7093 57.2633 83.4193 56.8789 83.0481C56.4946 82.6769 56.1889 82.2321 55.9802 81.7402C55.7714 81.2484 55.6638 80.7195 55.6638 80.1852C55.6638 79.6509 55.7714 79.122 55.9802 78.6301C56.1889 78.1383 56.4946 77.6935 56.8789 77.3223C57.2633 76.9511 57.7184 76.6611 58.2172 76.4696C58.7161 76.278 59.2483 76.1889 59.7824 76.2075H79.7136Z" fill="#F2F2F2"/>
<path d="M80.2031 84.1017C80.2031 84.1829 80.1708 84.2607 80.1135 84.318C80.0561 84.3754 79.9783 84.4077 79.8971 84.4077H59.4272C58.8768 84.4077 58.3317 84.2993 57.8231 84.0886C57.3145 83.8779 56.8524 83.5692 56.4631 83.1799C56.0739 82.7907 55.7651 82.3286 55.5544 81.82C55.3438 81.3114 55.2354 80.7663 55.2354 80.2158C55.2354 79.6653 55.3438 79.1202 55.5544 78.6116C55.7651 78.1031 56.0739 77.641 56.4631 77.2517C56.8524 76.8624 57.3145 76.5537 57.8231 76.343C58.3317 76.1323 58.8768 76.0239 59.4272 76.0239H79.8971C79.9783 76.0239 80.0561 76.0562 80.1135 76.1135C80.1709 76.1709 80.2031 76.2488 80.2031 76.3299C80.2031 76.4111 80.1709 76.4889 80.1135 76.5463C80.0561 76.6036 79.9783 76.6359 79.8971 76.6359H59.4272C58.4783 76.6367 57.5686 77.0143 56.8979 77.6856C56.2273 78.3568 55.8505 79.2669 55.8505 80.2158C55.8505 81.1647 56.2273 82.0748 56.8979 82.7461C57.5686 83.4174 58.4783 83.7949 59.4272 83.7957H79.8971C79.9783 83.7958 80.0561 83.828 80.1134 83.8854C80.1708 83.9428 80.2031 84.0206 80.2031 84.1017Z" fill="#3F3D56"/>
<path d="M79.7137 78.0433H58.2953C58.2872 78.0434 58.2792 78.0418 58.2717 78.0388C58.2642 78.0357 58.2574 78.0312 58.2517 78.0255C58.246 78.0198 58.2414 78.0131 58.2383 78.0056C58.2352 77.9982 58.2336 77.9902 58.2336 77.9821C58.2336 77.974 58.2352 77.966 58.2383 77.9586C58.2414 77.9511 58.246 77.9444 58.2517 77.9387C58.2574 77.933 58.2642 77.9285 58.2717 77.9254C58.2792 77.9224 58.2872 77.9208 58.2953 77.9209H79.7137C79.7298 77.921 79.7453 77.9275 79.7567 77.939C79.7681 77.9504 79.7745 77.9659 79.7745 77.9821C79.7745 77.9983 79.7681 78.0138 79.7567 78.0252C79.7453 78.0367 79.7298 78.0432 79.7137 78.0433Z" fill="#CCCCCC"/>
<path d="M79.7137 79.512H58.2953C58.2872 79.5121 58.2792 79.5105 58.2717 79.5075C58.2642 79.5044 58.2574 79.5 58.2517 79.4943C58.246 79.4886 58.2414 79.4818 58.2383 79.4744C58.2352 79.4669 58.2336 79.4589 58.2336 79.4508C58.2336 79.4428 58.2352 79.4348 58.2383 79.4273C58.2414 79.4199 58.246 79.4131 58.2517 79.4074C58.2574 79.4017 58.2642 79.3972 58.2717 79.3942C58.2792 79.3911 58.2872 79.3896 58.2953 79.3896H79.7137C79.7298 79.3898 79.7453 79.3962 79.7567 79.4077C79.7681 79.4192 79.7745 79.4347 79.7745 79.4508C79.7745 79.467 79.7681 79.4825 79.7567 79.494C79.7453 79.5054 79.7298 79.5119 79.7137 79.512Z" fill="#CCCCCC"/>
<path d="M79.7137 80.9808H58.2953C58.2872 80.9808 58.2792 80.9793 58.2717 80.9763C58.2642 80.9732 58.2574 80.9687 58.2517 80.963C58.246 80.9573 58.2414 80.9506 58.2383 80.9431C58.2352 80.9357 58.2336 80.9277 58.2336 80.9196C58.2336 80.9115 58.2352 80.9035 58.2383 80.8961C58.2414 80.8886 58.246 80.8819 58.2517 80.8762C58.2574 80.8705 58.2642 80.866 58.2717 80.8629C58.2792 80.8599 58.2872 80.8583 58.2953 80.8584H79.7137C79.7298 80.8585 79.7453 80.865 79.7567 80.8765C79.7681 80.8879 79.7745 80.9034 79.7745 80.9196C79.7745 80.9358 79.7681 80.9513 79.7567 80.9627C79.7453 80.9742 79.7298 80.9807 79.7137 80.9808Z" fill="#CCCCCC"/>
<path d="M79.7137 82.4495H58.2953C58.2872 82.4496 58.2792 82.448 58.2717 82.445C58.2642 82.4419 58.2574 82.4375 58.2517 82.4318C58.246 82.4261 58.2414 82.4193 58.2383 82.4119C58.2352 82.4044 58.2336 82.3964 58.2336 82.3883C58.2336 82.3803 58.2352 82.3723 58.2383 82.3648C58.2414 82.3574 58.246 82.3506 58.2517 82.3449C58.2574 82.3392 58.2642 82.3347 58.2717 82.3317C58.2792 82.3286 58.2872 82.3271 58.2953 82.3271H79.7137C79.7298 82.3273 79.7453 82.3337 79.7567 82.3452C79.7681 82.3567 79.7745 82.3722 79.7745 82.3883C79.7745 82.4045 79.7681 82.42 79.7567 82.4315C79.7453 82.4429 79.7298 82.4494 79.7137 82.4495Z" fill="#CCCCCC"/>
<path d="M102.9 120.821V113.885C102.9 113.578 102.778 113.284 102.561 113.068C102.344 112.851 102.05 112.729 101.744 112.729H75.4432C75.1366 112.729 74.8425 112.851 74.6257 113.068C74.4089 113.284 74.2871 113.578 74.2871 113.885V120.821H102.9Z" fill="#CCCCCC"/>
<path d="M102.9 123.423H74.2871V132.382H102.9V123.423Z" fill="#CCCCCC"/>
<path d="M74.2871 134.983V141.92C74.2871 142.226 74.4089 142.52 74.6257 142.737C74.8425 142.954 75.1366 143.076 75.4432 143.076H101.744C102.05 143.076 102.344 142.954 102.561 142.737C102.778 142.52 102.9 142.226 102.9 141.92V134.983H74.2871Z" fill="#CCCCCC"/>
<path d="M88.4488 117.931C88.9277 117.931 89.3159 117.543 89.3159 117.064C89.3159 116.585 88.9277 116.197 88.4488 116.197C87.97 116.197 87.5818 116.585 87.5818 117.064C87.5818 117.543 87.97 117.931 88.4488 117.931Z" fill="white"/>
<path d="M88.4488 129.492C88.9277 129.492 89.3159 129.104 89.3159 128.625C89.3159 128.146 88.9277 127.758 88.4488 127.758C87.97 127.758 87.5818 128.146 87.5818 128.625C87.5818 129.104 87.97 129.492 88.4488 129.492Z" fill="white"/>
<path d="M88.4955 140.808C88.9743 140.808 89.3625 140.42 89.3625 139.941C89.3625 139.462 88.9743 139.074 88.4955 139.074C88.0166 139.074 87.6284 139.462 87.6284 139.941C87.6284 140.42 88.0166 140.808 88.4955 140.808Z" fill="white"/>
<path d="M99.6558 104.82V112.776H79.7245C79.1905 112.794 78.6582 112.705 78.1594 112.514C77.6606 112.322 77.2054 112.032 76.8211 111.661C76.4367 111.29 76.1311 110.845 75.9223 110.353C75.7136 109.861 75.606 109.332 75.606 108.798C75.606 108.264 75.7136 107.735 75.9223 107.243C76.1311 106.751 76.4367 106.306 76.8211 105.935C77.2054 105.564 77.6606 105.274 78.1594 105.082C78.6582 104.891 79.1905 104.802 79.7245 104.82H99.6558Z" fill="#F2F2F2"/>
<path d="M100.145 112.715C100.145 112.796 100.113 112.873 100.056 112.931C99.9983 112.988 99.9205 113.02 99.8393 113.02H79.3694C78.8187 113.021 78.2732 112.913 77.7642 112.702C77.2552 112.492 76.7927 112.183 76.4031 111.794C76.0134 111.405 75.7044 110.942 75.4935 110.434C75.2826 109.925 75.1741 109.379 75.1741 108.829C75.1741 108.278 75.2826 107.732 75.4935 107.224C75.7044 106.715 76.0134 106.253 76.4031 105.863C76.7927 105.474 77.2552 105.165 77.7642 104.955C78.2732 104.744 78.8187 104.636 79.3694 104.637H99.8393C99.9205 104.637 99.9983 104.669 100.056 104.726C100.113 104.784 100.145 104.862 100.145 104.943C100.145 105.024 100.113 105.102 100.056 105.159C99.9983 105.216 99.9205 105.249 99.8393 105.249H79.3694C78.4205 105.25 77.5108 105.627 76.8401 106.298C76.1694 106.97 75.7927 107.88 75.7927 108.829C75.7927 109.778 76.1694 110.688 76.8401 111.359C77.5108 112.03 78.4205 112.408 79.3694 112.409H99.8393C99.9205 112.409 99.9983 112.441 100.056 112.498C100.113 112.556 100.145 112.633 100.145 112.715Z" fill="#3F3D56"/>
<path d="M99.6558 106.656H78.2374C78.2293 106.656 78.2213 106.655 78.2138 106.652C78.2064 106.648 78.1996 106.644 78.1938 106.638C78.1881 106.633 78.1836 106.626 78.1805 106.618C78.1774 106.611 78.1758 106.603 78.1758 106.595C78.1758 106.587 78.1774 106.579 78.1805 106.571C78.1836 106.564 78.1881 106.557 78.1938 106.551C78.1996 106.546 78.2064 106.541 78.2138 106.538C78.2213 106.535 78.2293 106.534 78.2374 106.534H99.6558C99.672 106.534 99.6874 106.54 99.6988 106.552C99.7102 106.563 99.7166 106.579 99.7166 106.595C99.7166 106.611 99.7102 106.627 99.6988 106.638C99.6874 106.649 99.672 106.656 99.6558 106.656Z" fill="#CCCCCC"/>
<path d="M99.6558 108.125H78.2374C78.2293 108.125 78.2213 108.123 78.2138 108.12C78.2064 108.117 78.1996 108.113 78.1938 108.107C78.1881 108.101 78.1836 108.095 78.1805 108.087C78.1774 108.08 78.1758 108.072 78.1758 108.064C78.1758 108.056 78.1774 108.048 78.1805 108.04C78.1836 108.033 78.1881 108.026 78.1938 108.02C78.1996 108.015 78.2064 108.01 78.2138 108.007C78.2213 108.004 78.2293 108.002 78.2374 108.002H99.6558C99.672 108.003 99.6874 108.009 99.6988 108.021C99.7102 108.032 99.7166 108.047 99.7166 108.064C99.7166 108.08 99.7102 108.095 99.6988 108.107C99.6874 108.118 99.672 108.125 99.6558 108.125Z" fill="#CCCCCC"/>
<path d="M99.6558 109.594H78.2374C78.2293 109.594 78.2213 109.592 78.2138 109.589C78.2064 109.586 78.1996 109.581 78.1938 109.576C78.1881 109.57 78.1836 109.563 78.1805 109.556C78.1774 109.548 78.1758 109.54 78.1758 109.532C78.1758 109.524 78.1774 109.516 78.1805 109.509C78.1836 109.501 78.1881 109.495 78.1938 109.489C78.1996 109.483 78.2064 109.479 78.2138 109.476C78.2213 109.473 78.2293 109.471 78.2374 109.471H99.6558C99.672 109.471 99.6874 109.478 99.6988 109.489C99.7102 109.501 99.7166 109.516 99.7166 109.532C99.7166 109.549 99.7102 109.564 99.6988 109.576C99.6874 109.587 99.672 109.593 99.6558 109.594Z" fill="#CCCCCC"/>
<path d="M99.6558 111.062H78.2374C78.2293 111.062 78.2213 111.061 78.2138 111.058C78.2064 111.055 78.1996 111.05 78.1938 111.045C78.1881 111.039 78.1836 111.032 78.1805 111.025C78.1774 111.017 78.1758 111.009 78.1758 111.001C78.1758 110.993 78.1774 110.985 78.1805 110.978C78.1836 110.97 78.1881 110.963 78.1938 110.958C78.1996 110.952 78.2064 110.948 78.2138 110.944C78.2213 110.941 78.2293 110.94 78.2374 110.94H99.6558C99.672 110.94 99.6874 110.947 99.6988 110.958C99.7102 110.969 99.7166 110.985 99.7166 111.001C99.7166 111.017 99.7102 111.033 99.6988 111.044C99.6874 111.056 99.672 111.062 99.6558 111.062Z" fill="#CCCCCC"/>
<path d="M72.7861 52.8964V2.17383C72.7868 1.59749 73.016 1.04495 73.4236 0.637425C73.8311 0.229896 74.3836 0.00065556 74.96 0H115.055C115.631 0.000659377 116.184 0.229901 116.591 0.637429C116.999 1.04496 117.228 1.59749 117.229 2.17383V52.8964C117.228 53.4727 116.999 54.0252 116.591 54.4328C116.184 54.8403 115.631 55.0695 115.055 55.0702H74.96C74.3836 55.0695 73.8311 54.8403 73.4236 54.4328C73.016 54.0252 72.7868 53.4727 72.7861 52.8964ZM74.96 0.483073C74.5117 0.483575 74.0819 0.661869 73.765 0.978838C73.448 1.29581 73.2697 1.72557 73.2692 2.17383V52.8964C73.2697 53.3446 73.448 53.7744 73.765 54.0914C74.0819 54.4083 74.5117 54.5866 74.96 54.5871H115.055C115.503 54.5866 115.933 54.4083 116.25 54.0914C116.567 53.7744 116.745 53.3446 116.746 52.8964V2.17383C116.745 1.72557 116.567 1.29581 116.25 0.978838C115.933 0.66187 115.503 0.483576 115.055 0.483073H74.96Z" fill="#E6E6E6"/>
<path d="M97.2559 23.2943V12.8794C97.2562 12.5912 97.3708 12.315 97.5745 12.1112C97.7783 11.9074 98.0546 11.7928 98.3428 11.7925H107.168C107.457 11.7928 107.733 11.9074 107.937 12.1112C108.14 12.315 108.255 12.5912 108.255 12.8794V23.2943C108.255 23.5825 108.14 23.8588 107.937 24.0625C107.733 24.2663 107.457 24.3809 107.168 24.3812H98.3428C98.0546 24.3809 97.7783 24.2663 97.5745 24.0625C97.3708 23.8588 97.2562 23.5825 97.2559 23.2943Z" fill="#40D3A9"/>
<path d="M80.1069 28.1249V17.71C80.1073 17.4218 80.2219 17.1455 80.4256 16.9417C80.6294 16.738 80.9057 16.6234 81.1939 16.623H90.0196C90.3077 16.6234 90.584 16.738 90.7878 16.9417C90.9916 17.1455 91.1062 17.4218 91.1065 17.71V28.1249C91.1062 28.4131 90.9916 28.6893 90.7878 28.8931C90.584 29.0969 90.3077 29.2115 90.0196 29.2118H81.1939C80.9057 29.2115 80.6294 29.0969 80.4256 28.8931C80.2219 28.6893 80.1072 28.413 80.1069 28.1249Z" fill="#CCCCCC"/>
<path d="M93.8745 42.8583V32.4434C93.8748 32.1552 93.9895 31.8789 94.1932 31.6751C94.397 31.4714 94.6732 31.3568 94.9614 31.3564H103.787C104.075 31.3568 104.352 31.4714 104.555 31.6751C104.759 31.8789 104.874 32.1552 104.874 32.4434V42.8583C104.874 43.1465 104.759 43.4227 104.555 43.6265C104.352 43.8303 104.075 43.9449 103.787 43.9452H94.9614C94.6732 43.9449 94.397 43.8303 94.1932 43.6265C93.9895 43.4227 93.8748 43.1465 93.8745 42.8583Z" fill="#FF6584"/>
<path d="M146.616 90.4749H137.535C137.449 90.4748 137.364 90.4946 137.287 90.5327L134.995 91.6801C134.92 91.7122 134.855 91.7657 134.81 91.8341C134.765 91.9024 134.741 91.9826 134.741 92.0645C134.741 92.1465 134.765 92.2266 134.81 92.295C134.855 92.3633 134.92 92.4169 134.995 92.4489L137.287 93.5963C137.364 93.6344 137.449 93.6542 137.535 93.6541H146.616C146.742 93.6613 146.864 93.619 146.959 93.5362C147.053 93.4535 147.11 93.3369 147.119 93.2119V90.9171C147.111 90.7921 147.053 90.6756 146.959 90.5928C146.864 90.51 146.742 90.4677 146.616 90.4749Z" fill="#3F3D56"/>
<path d="M147.12 90.9171V93.2119C147.111 93.337 147.053 93.4535 146.959 93.5362C146.865 93.619 146.742 93.6613 146.617 93.6541H144.807V90.4749H146.617C146.742 90.4677 146.865 90.51 146.959 90.5928C147.053 90.6756 147.111 90.7921 147.12 90.9171Z" fill="#40D3A9"/>
<path d="M146.548 73.3071C146.959 73.1296 147.404 73.0411 147.852 73.0472C148.3 73.0533 148.741 73.154 149.147 73.3427C149.554 73.5314 149.916 73.8037 150.209 74.142C150.503 74.4803 150.722 74.8768 150.852 75.3056C150.892 75.4415 150.923 75.5801 150.944 75.7203L163.643 82.0175L166.582 80.0699L170.239 84.2796L165.751 87.924C165.212 88.3589 164.546 88.6081 163.854 88.6349C163.161 88.6616 162.478 88.4643 161.907 88.0723L149.023 79.1624C148.927 79.2031 148.829 79.2388 148.729 79.2694C148.301 79.3991 147.849 79.4367 147.405 79.3798C146.96 79.3228 146.533 79.1727 146.151 78.9391C145.768 78.7055 145.44 78.3937 145.186 78.0242C144.933 77.6548 144.76 77.2359 144.68 76.7952C144.656 76.6672 144.641 76.5379 144.633 76.408C144.597 75.7574 144.762 75.1115 145.104 74.5572C145.447 74.0028 145.95 73.5666 146.548 73.3071Z" fill="#FFB8B8"/>
<path d="M172.997 112.079H159.122C159.122 112.477 144.821 112.801 144.821 112.801C144.597 112.97 144.392 113.164 144.211 113.379C143.668 114.027 143.371 114.846 143.373 115.691V116.269C143.373 117.227 143.754 118.146 144.432 118.824C145.109 119.501 146.028 119.882 146.986 119.882H172.997C173.955 119.881 174.874 119.5 175.551 118.823C176.228 118.146 176.609 117.227 176.61 116.269V115.691C176.609 114.734 176.228 113.815 175.55 113.138C174.873 112.461 173.955 112.08 172.997 112.079Z" fill="#3F3D56"/>
<path d="M157.904 144.016H161.661V119.739H157.904V144.016Z" fill="#3F3D56"/>
<path d="M147.21 143.884C147.21 144.29 152.904 144.041 159.927 144.041C166.95 144.041 172.644 144.29 172.644 143.884C172.644 143.478 166.95 140.259 159.927 140.259C152.904 140.259 147.21 143.478 147.21 143.884Z" fill="#3F3D56"/>
<path d="M150.602 141.038L147.059 141.038L145.373 131.848L150.603 131.848L150.602 141.038Z" fill="#FFB8B8"/>
<path d="M151.506 144.473L140.081 144.473V144.328C140.081 143.744 140.196 143.166 140.419 142.626C140.643 142.087 140.97 141.597 141.383 141.184C141.796 140.771 142.286 140.443 142.826 140.22C143.366 139.996 143.944 139.881 144.528 139.881H144.528L151.506 139.882L151.506 144.473Z" fill="#2F2E41"/>
<path d="M145.303 135.339L138.239 119.499C137.649 118.164 137.584 116.656 138.056 115.275C138.528 113.894 139.504 112.741 140.787 112.047L156.109 103.831L163.101 103.236L169.55 102.65L169.597 102.729C169.656 102.829 171.043 105.224 170.106 107.851C169.395 109.843 167.545 111.399 164.609 112.475C157.755 114.988 149.837 117.136 146.751 117.943C146.615 117.978 146.488 118.041 146.377 118.129C146.267 118.217 146.177 118.327 146.112 118.452C146.048 118.575 146.009 118.711 145.999 118.85C145.99 118.989 146.009 119.129 146.056 119.261L152.618 134.005C152.687 134.192 152.711 134.392 152.69 134.59C152.669 134.788 152.603 134.979 152.497 135.147C152.39 135.315 152.247 135.457 152.077 135.561C151.907 135.665 151.716 135.729 151.517 135.747L146.614 136.104C146.572 136.108 146.531 136.11 146.489 136.11C146.238 136.11 145.992 136.037 145.782 135.9C145.571 135.764 145.405 135.569 145.303 135.339Z" fill="#2F2E41"/>
<path d="M152.336 141.038L148.793 141.038L147.107 131.848L152.337 131.848L152.336 141.038Z" fill="#FFB8B8"/>
<path d="M153.24 144.473L141.815 144.473V144.328C141.815 143.744 141.93 143.166 142.153 142.626C142.377 142.087 142.704 141.597 143.117 141.184C143.53 140.771 144.021 140.443 144.56 140.22C145.1 139.996 145.678 139.881 146.262 139.881H146.262L153.24 139.882L153.24 144.473Z" fill="#2F2E41"/>
<path d="M147.326 136.207L140.262 120.366C139.672 119.031 139.607 117.523 140.079 116.142C140.552 114.761 141.527 113.608 142.811 112.914L158.132 104.698L165.124 104.103L171.573 103.517L171.62 103.596C171.679 103.696 173.066 106.091 172.129 108.718C171.418 110.71 169.568 112.266 166.632 113.343C159.778 115.856 151.861 118.004 148.775 118.81C148.638 118.845 148.511 118.908 148.401 118.996C148.291 119.084 148.2 119.194 148.136 119.319C148.071 119.442 148.032 119.578 148.023 119.717C148.013 119.857 148.032 119.996 148.079 120.128L154.641 134.872C154.71 135.059 154.735 135.259 154.714 135.457C154.692 135.655 154.626 135.846 154.52 136.014C154.413 136.182 154.27 136.324 154.1 136.428C153.93 136.532 153.739 136.596 153.54 136.614L148.637 136.971C148.595 136.975 148.554 136.977 148.512 136.977C148.261 136.977 148.016 136.904 147.805 136.768C147.594 136.631 147.428 136.436 147.326 136.207Z" fill="#2F2E41"/>
<path d="M143.805 87.8162C140.836 83.8678 138.49 79.4884 136.847 74.8301C136.751 74.5515 136.758 74.2481 136.866 73.974C136.973 73.6998 137.175 73.4728 137.434 73.3332L147.591 67.8905C147.756 67.8018 147.938 67.7517 148.125 67.7442C148.311 67.7366 148.497 67.7717 148.668 67.8468C148.842 67.9225 148.997 68.0369 149.12 68.1813C149.243 68.3258 149.332 68.4965 149.379 68.6803C150.562 73.1692 152.784 77.3168 155.867 80.7875C155.994 80.9287 156.087 81.0971 156.139 81.2798C156.191 81.4624 156.2 81.6545 156.167 81.8414C156.135 82.0254 156.061 82.1995 155.951 82.3507C155.842 82.5019 155.699 82.626 155.534 82.7137L145.376 88.1564C145.117 88.2949 144.816 88.3367 144.528 88.2745C144.24 88.2122 143.984 88.0498 143.805 87.8162Z" fill="#CCCCCC"/>
<path d="M144.498 87.2955C144.553 87.3637 144.629 87.4107 144.715 87.4284C144.8 87.446 144.89 87.4333 144.967 87.3923L155.124 81.9495C155.174 81.9238 155.216 81.887 155.249 81.8421C155.282 81.7971 155.304 81.7451 155.313 81.6903C155.324 81.6324 155.321 81.5728 155.304 81.5163C155.288 81.4597 155.259 81.4077 155.219 81.3643C152.046 77.7914 149.758 73.5216 148.541 68.9004C148.527 68.8433 148.5 68.7903 148.462 68.7454C148.424 68.7005 148.376 68.665 148.322 68.6418C148.271 68.619 148.215 68.6084 148.16 68.6107C148.104 68.613 148.05 68.6282 148.001 68.655L137.843 74.0976C137.766 74.1392 137.706 74.2064 137.674 74.2875C137.641 74.3686 137.638 74.4586 137.664 74.5419C139.278 79.1168 141.583 83.4178 144.498 87.2955Z" fill="white"/>
<path d="M177.55 86.3646L169.595 89.3875L167.652 83.9925C167.395 83.2762 167.398 82.4917 167.663 81.7777C167.927 81.0638 168.436 80.4663 169.098 80.0909C169.768 79.7112 170.552 79.5836 171.308 79.7312C172.064 79.8788 172.742 80.2918 173.22 80.8957L177.55 86.3646Z" fill="#40D3A9"/>
<path d="M157.316 107.74C157.148 107.622 157.008 107.469 156.904 107.292C156.8 107.115 156.735 106.919 156.714 106.715C155.695 97.2032 156.404 89.7597 158.883 83.9589C159.319 82.9584 159.977 82.0698 160.806 81.36C161.636 80.6502 162.615 80.1376 163.671 79.8607L170.102 79.5361L170.135 79.5522C171.586 80.263 172.769 81.4224 173.51 82.8587C174.25 84.2949 174.508 85.9315 174.244 87.5257C172.176 92.9776 170.444 98.6538 171.765 103.233C171.82 103.424 171.837 103.625 171.813 103.823C171.789 104.02 171.725 104.211 171.625 104.384C171.529 104.551 171.399 104.696 171.244 104.811C171.089 104.926 170.912 105.008 170.725 105.051L158.477 107.965C158.278 108.012 158.072 108.017 157.872 107.978C157.672 107.939 157.482 107.858 157.316 107.74Z" fill="#40D3A9"/>
<path d="M167.955 77.1341C171.876 77.1341 175.054 73.956 175.054 70.0356C175.054 66.1151 171.876 62.937 167.955 62.937C164.035 62.937 160.857 66.1151 160.857 70.0356C160.857 73.956 164.035 77.1341 167.955 77.1341Z" fill="#FFB8B8"/>
<path d="M148.258 75.6579L142.726 78.1C142.516 78.1926 142.277 78.198 142.063 78.1149C141.848 78.0318 141.676 77.8671 141.583 77.6569L141.446 77.3469C141.353 77.1365 141.348 76.898 141.431 76.6837C141.514 76.4693 141.679 76.2967 141.889 76.2036L147.421 73.7615C147.632 73.6689 147.87 73.6636 148.084 73.7466C148.299 73.8297 148.471 73.9944 148.565 74.2046L148.701 74.5146C148.794 74.725 148.799 74.9635 148.716 75.1779C148.633 75.3922 148.468 75.5649 148.258 75.6579Z" fill="#CCCCCC"/>
<path d="M150.281 79.4152L144.749 81.8573C144.539 81.9499 144.3 81.9553 144.086 81.8722C143.871 81.7892 143.699 81.6244 143.606 81.4142L143.469 81.1043C143.376 80.8939 143.371 80.6553 143.454 80.441C143.537 80.2266 143.702 80.054 143.912 79.9609L149.444 77.5189C149.655 77.4263 149.893 77.4209 150.107 77.504C150.322 77.587 150.494 77.7517 150.587 77.9619L150.724 78.2719C150.817 78.4823 150.822 78.7208 150.739 78.9352C150.656 79.1495 150.491 79.3222 150.281 79.4152Z" fill="#CCCCCC"/>
<path d="M154.548 94.0903L142.214 84.3603C142.116 84.3949 142.016 84.4243 141.915 84.4486C141.479 84.5505 141.027 84.5596 140.588 84.4753C140.149 84.3911 139.733 84.2155 139.366 83.9598C138.997 83.7039 138.687 83.3722 138.456 82.9867C138.225 82.6013 138.08 82.171 138.029 81.7247C137.946 81.0113 138.107 80.2908 138.485 79.6802C138.864 79.0697 139.437 78.6048 140.113 78.3611C140.534 78.2098 140.983 78.1494 141.43 78.1837C141.876 78.2179 142.311 78.3462 142.704 78.5601C143.098 78.7739 143.442 79.0685 143.714 79.4246C143.986 79.7807 144.179 80.1901 144.282 80.6262C144.314 80.7644 144.336 80.9046 144.348 81.0459L156.626 88.129L159.681 86.3699L163.066 90.8011L158.322 94.1824C157.767 94.5749 157.1 94.778 156.42 94.7614C155.74 94.7449 155.083 94.5095 154.548 94.0903Z" fill="#FFB8B8"/>
<path d="M164.571 92.1812L157.534 87.3958L160.841 82.7118C161.28 82.0898 161.925 81.6431 162.662 81.4506C163.398 81.2581 164.179 81.3322 164.867 81.6598C165.562 81.9912 166.116 82.5602 166.428 83.2642C166.741 83.9683 166.791 84.7608 166.57 85.4987L164.571 92.1812Z" fill="#40D3A9"/>
<path d="M165.353 68.9785C163.529 70.2272 161.133 71.5107 159.27 70.181C158.046 69.3078 157.661 67.691 158.157 66.2721C159.049 63.7204 161.5 62.5971 163.845 61.7361C166.892 60.6167 170.211 59.7262 173.357 60.5278C176.503 61.3294 179.283 64.3755 178.715 67.572C178.258 70.1426 175.834 72.2815 176.178 74.8696C176.524 77.4742 179.454 78.8453 182.04 79.3108C184.626 79.7763 187.519 79.9259 189.378 81.7834C191.749 84.153 191.157 88.3884 188.926 90.8902C186.695 93.392 183.329 94.526 180.066 95.297C175.744 96.3184 171.07 96.8553 166.965 95.1601C162.86 93.4649 159.665 88.9016 160.854 84.6226C161.357 82.8151 162.54 81.2876 163.683 79.8004C164.827 78.3133 165.985 76.7583 166.421 74.9337C166.785 73.4133 166.516 71.648 165.507 70.5075C165.324 70.3078 165.209 70.0552 165.178 69.7859C165.147 69.5166 165.202 69.2444 165.336 69.0085L165.353 68.9785Z" fill="#2F2E41"/>
<path d="M32.0237 103.468C30.1945 104.111 28.2306 104.272 26.3211 103.935C24.4116 103.599 22.621 102.777 21.1216 101.547C17.3031 98.3424 16.1059 93.0622 15.1318 88.1731C14.1713 83.3527 13.2109 78.5323 12.2505 73.7119L18.2828 77.8655C22.6208 80.8525 27.0566 83.9352 30.0602 88.2618C33.0639 92.5883 34.375 98.4945 31.9616 103.176" fill="#E6E6E6"/>
<path d="M31.5082 120.976C32.1188 116.529 32.7466 112.025 32.3183 107.53C31.9379 103.538 30.7201 99.6387 28.2406 96.4417C26.9245 94.748 25.3231 93.2969 23.5083 92.1535C23.035 91.8548 22.5995 92.6047 23.0707 92.9021C26.2108 94.8867 28.6395 97.8172 30.0067 101.271C31.5168 105.112 31.7593 109.299 31.4991 113.379C31.3417 115.846 31.0082 118.298 30.6721 120.746C30.6456 120.856 30.6622 120.973 30.7184 121.072C30.7746 121.171 30.8663 121.245 30.9749 121.279C31.0858 121.309 31.2039 121.294 31.3038 121.237C31.4036 121.18 31.4771 121.087 31.5082 120.976Z" fill="#F2F2F2"/>
<path d="M25.6275 113.106C24.843 114.299 23.7647 115.269 22.4964 115.923C21.2281 116.578 19.8126 116.895 18.3862 116.844C14.7206 116.67 11.6646 114.111 8.91364 111.682L0.776855 104.498L6.16206 104.241C10.0348 104.055 14.0074 103.882 17.696 105.077C21.3847 106.271 24.7865 109.145 25.461 112.963" fill="#E6E6E6"/>
<path d="M33.2335 123.533C30.2948 118.333 26.8863 112.554 20.7957 110.707C19.1022 110.195 17.3265 110.012 15.5642 110.167C15.0088 110.215 15.1475 111.071 15.7019 111.023C18.6559 110.778 21.6043 111.558 24.0506 113.232C26.4046 114.834 28.2374 117.062 29.7888 119.424C30.739 120.871 31.5901 122.379 32.4415 123.886C32.7135 124.367 33.5087 124.02 33.2335 123.533Z" fill="#F2F2F2"/>
<path d="M37.9422 129.006C37.8432 127.859 37.4312 126.76 36.7513 125.831C36.0713 124.902 35.1494 124.177 34.0859 123.735V120.729H29.044V123.83C28.0329 124.293 27.1626 125.016 26.5221 125.926C25.8815 126.835 25.4936 127.898 25.3977 129.006L24.2122 142.787H39.1277L37.9422 129.006Z" fill="#F2F2F2"/>
</g>
<defs>
<clipPath id="clip0_487_3791">
<rect width="200" height="144.473" fill="white" transform="translate(0.5)"/>
</clipPath>
</defs>
</svg>
